<svg xmlns="http://www.w3.org/2000/svg" width="664.896" height="956.288" viewBox="0 0 664.896 956.288">
  <g id="Coding" transform="translate(-271.824 0)">
    <circle id="Ellipse_276" data-name="Ellipse 276" cx="140.263" cy="140.263" r="140.263" transform="translate(469.047 56.658)" fill="#feb8b8"/>
    <path id="Path_1461" data-name="Path 1461" d="M812.407,284.413a161.993,161.993,0,0,0-92.158-70.447L703.03,226.533V210.216a149.107,149.107,0,0,0-27.852-1.622l-14.856,13.442V209.711a160.446,160.446,0,0,0-110.683,65.836c-32.262,46.51-37.708,111.216-5.976,158.1,8.71-26.77,19.283-51.888,28-78.656a79.231,79.231,0,0,0,20.64.1l10.6-24.729,2.961,23.682c32.849-2.861,81.571-9.145,112.711-14.9l-3.029-18.169,18.117,15.1c9.54-2.2,15.2-4.189,14.737-5.711,23.16,37.338,51.5,61.185,74.662,98.523C831.853,376.234,841.976,332.457,812.407,284.413Z" transform="translate(-72.092 -208.5)" fill="#2f2e41"/>
    <path id="Path_7" data-name="Path 7" d="M1046.2,587.4c-4.823-29.017-9.8-58.592-23.284-84.732-8.863-17.122-22.933-33.438-41.9-36.824a40.535,40.535,0,0,1-10.91-2.526c-5.557-2.677-80.239-45.309-92.109-52.735C867.8,404.206,851.714,392.4,843.6,392.4c-8.161-.18-39.455,7.1-161.6-2.444,0,0-33.554,13.226-59.517,29.263-.394-.259-126.772,67.605-131.52,67.427-8.992-.379-17.349,5.378-22.5,12.628s-7.571,16.224-10.1,24.9c27.6,61.472,52.859,123.022,80.465,184.493a15.741,15.741,0,0,1,2,7.571,18.476,18.476,0,0,1-3.434,7.571c-13.538,21.746-13.107,49.1-11.628,74.656s3.31,52.556-8.112,75.465c-3.107,6.29-7.147,12.047-10.1,18.336-6.92,14.245-9.421,59.806-5.379,75.111l506.383,14.507C997.663,951.962,1046.2,587.4,1046.2,587.4Z" transform="translate(-135.222 -29.786)"/>
    <path id="Path_1421" data-name="Path 1421" d="M436.728,568.963a89.4,89.4,0,0,0-.3,22.049l7.258,104.231c.682,9.824,1.352,19.623,2.274,29.423,1.741,19.018,4.343,37.884,7.571,56.723a10.1,10.1,0,0,0,10.354,9.824c31.948,6.76,64.957,6.49,97.563,4.648,49.755-2.777,177.046-8.031,184.823-18.133s3.245-26.443-6.9-34.612-178.12-28.085-178.12-28.085c1.641-13.007,6.593-25.256,11.29-37.605,8.437-21.9,16.316-44.525,16.468-67.988S580.322,561.3,561.1,547.863c-15.811-11.035-36.167-13.082-55.434-12.628-14.018.4-38.238-2.956-51.042,2.526C444.495,542.223,438.622,559.042,436.728,568.963Z" transform="translate(-157.359 112.649)" fill="#fbbebe"/>
    <path id="Path_1430" data-name="Path 1430" d="M482.365,466.513a26.139,26.139,0,0,0-5.606,8.967A423.942,423.942,0,0,0,441.149,621a14.547,14.547,0,0,1-1.641,7.047,30.839,30.839,0,0,1-3.713,4.015,13.942,13.942,0,0,0,1.667,19.647q.344.29.707.558c4.167-7.842,14.142-10.405,23.009-11.087,42.454-3.358,83.924,16.392,126.5,14.9-3-10.381-7.325-20.356-9.775-30.862-10.835-46.648,16.189-97.436-.378-142.367-3.31-8.991-8.84-17.831-17.552-21.771a46.756,46.756,0,0,0-11.238-2.974c-10.76-1.944-32.178-10.254-42.581-6.92-3.84,1.239-5.354,4.848-8.537,7.031C492.785,461.31,486.372,462.446,482.365,466.513Z" transform="translate(-160.685 29.751)"/>
    <path id="Path_1421-2" data-name="Path 1421" d="M901.332,537.76c-12.8-5.481-37.024-2.123-51.042-2.526-19.266-.454-39.623,1.593-55.434,12.628-19.22,13.442-28.06,38.111-27.909,61.574s8.031,46.085,16.468,67.988c4.7,12.349,9.648,24.6,11.289,37.605,0,0-167.979,19.916-178.12,28.085s-14.672,24.51-6.9,34.612,250.437,20.245,282.386,13.485a10.1,10.1,0,0,0,10.354-9.824c3.229-18.839,5.83-37.706,7.571-56.724.922-9.8,1.593-19.6,2.274-29.423l7.258-104.231a89.411,89.411,0,0,0-.3-22.049C917.338,559.042,911.464,542.223,901.332,537.76Z" transform="translate(9.945 112.649)" fill="#fbbebe"/>
    <path id="Path_1430-2" data-name="Path 1430" d="M779.375,458.222c-3.183-2.182-4.7-5.792-8.537-7.031-10.4-3.334-31.822,4.975-42.581,6.92a46.758,46.758,0,0,0-11.238,2.974c-8.713,3.94-14.242,12.779-17.552,21.771-16.568,44.931,10.457,95.719-.379,142.366-2.45,10.505-6.771,20.481-9.775,30.862,42.581,1.49,84.051-18.261,126.5-14.9,8.867.681,18.842,3.245,23.009,11.087q.362-.268.707-.558a13.942,13.942,0,0,0,1.667-19.647,30.832,30.832,0,0,1-3.713-4.015A14.548,14.548,0,0,1,835.847,621a423.948,423.948,0,0,0-35.61-145.522,26.14,26.14,0,0,0-5.605-8.967C790.623,462.446,784.21,461.31,779.375,458.222Z" transform="translate(92.234 29.751)"/>
    <circle id="Ellipse_1" data-name="Ellipse 1" cx="37.857" cy="37.857" r="37.857" transform="translate(529.911 833.125)" fill="#fbbebe"/>
    <circle id="Ellipse_2" data-name="Ellipse 2" cx="37.857" cy="37.857" r="37.857" transform="translate(613.736 833.125)" fill="#fbbebe"/>
    <path id="Path_8" data-name="Path 8" d="M1011,869.578h-520.1a22.93,22.93,0,0,1-22.9-22.9V531.147a22.93,22.93,0,0,1,22.9-22.9H1011a22.93,22.93,0,0,1,22.9,22.9V846.677A22.93,22.93,0,0,1,1011,869.578Z" transform="translate(-125.728 86.71)" fill="#3f3d56"/>
    <circle id="Ellipse_263" data-name="Ellipse 263" cx="15.154" cy="15.154" r="15.154" transform="translate(608.812 760.467)" fill="#fff"/>
    <path id="Path_10" data-name="Path 10" d="M557.8,388.782h0c-22.537,0-40.808-19.754-40.808-44.123h0V322.6c0-24.368,18.27-44.123,40.808-44.123h0V388.782Z" transform="translate(-77.475 -139.583)"/>
    <path id="Path_11" data-name="Path 11" d="M668.779,278.476h0c22.537,0,40.808,19.754,40.808,44.123V344.66c0,24.368-18.27,44.123-40.808,44.123h0Z" transform="translate(72.011 -139.583)"/>
    <path id="Path_12" data-name="Path 12" d="M833.76,385.819h-6.475c0-88.783-66.8-161.014-148.917-161.014S529.452,297.036,529.452,385.819h-6.475c0-92.644,69.709-168.015,155.392-168.015S833.76,293.175,833.76,385.819Z" transform="translate(-71.586 -199.336)"/>
  </g>
</svg>
